<svg xmlns="http://www.w3.org/2000/svg" viewBox="0 0 48 48"><defs><style>.cls-1{fill:#ffd364;}.cls-2{fill:#273941;}.cls-3{fill:#f6fafd;}.cls-4{fill:#ffeb95;}.cls-5{fill:#ffb839;}.cls-6{fill:#141e21;}</style></defs><title>12-neutral</title><g id="_12-neutral" data-name="12-neutral"><circle class="cls-1" cx="24" cy="24" r="23"/><ellipse class="cls-2" cx="33" cy="18" rx="3" ry="4"/><ellipse class="cls-2" cx="15" cy="18" rx="3" ry="4"/><ellipse class="cls-2" cx="33" cy="18" rx="2" ry="3"/><ellipse class="cls-2" cx="15" cy="18" rx="2" ry="3"/><circle class="cls-3" cx="34" cy="17" r="1"/><circle class="cls-3" cx="16" cy="17" r="1"/><path class="cls-4" d="M24,4c12.15,0,22,8.507,22,19h.975a23,23,0,0,0-45.95,0H2C2,12.507,11.85,4,24,4Z"/><path class="cls-5" d="M46,23c0,10.493-9.85,19-22,19S2,33.493,2,23H1.025c-.014.332-.025.665-.025,1a23,23,0,0,0,46,0c0-.335-.011-.668-.025-1Z"/><rect class="cls-2" x="16" y="32" width="16" height="2"/><ellipse class="cls-3" cx="37" cy="9" rx="0.825" ry="1.148" transform="translate(4.48 28.81) rotate(-45.02)"/><ellipse class="cls-3" cx="30.746" cy="4.5" rx="0.413" ry="0.574" transform="translate(5.829 23.067) rotate(-45.02)"/><ellipse class="cls-3" cx="34" cy="7" rx="1.65" ry="2.297" transform="translate(5.015 26.102) rotate(-45.02)"/><path class="cls-6" d="M24,48A24,24,0,1,1,48,24,24.028,24.028,0,0,1,24,48ZM24,2A22,22,0,1,0,46,24,22.025,22.025,0,0,0,24,2Z"/><path class="cls-6" d="M33,22c-1.683,0-3-1.757-3-4s1.317-4,3-4,3,1.757,3,4S34.683,22,33,22Zm0-6c-.408,0-1,.779-1,2s.592,2,1,2,1-.779,1-2S33.408,16,33,16Z"/><path class="cls-6" d="M15,22c-1.683,0-3-1.757-3-4s1.317-4,3-4,3,1.757,3,4S16.683,22,15,22Zm0-6c-.408,0-1,.779-1,2s.592,2,1,2,1-.779,1-2S15.408,16,15,16Z"/><rect class="cls-6" x="16" y="32" width="16" height="2"/></g></svg>