<svg id="_01-smile" data-name="01-smile" xmlns="http://www.w3.org/2000/svg" viewBox="0 0 48 48"><defs><style>.cls-1{fill:#ffd364;}.cls-2{fill:#ae2d4c;}.cls-3{fill:#f6fafd;}.cls-4{fill:#273941;}.cls-5{fill:#8a293d;}.cls-6{fill:#ededed;}.cls-7{fill:#ffeb95;}.cls-8{fill:#ffb839;}.cls-9{fill:#141e21;}</style></defs><title>01-smile</title><circle class="cls-1" cx="24" cy="24" r="23"/><path class="cls-2" d="M7,26c0,3.32,7.6,7,17,7s17-3.68,17-7a12.636,12.636,0,0,1-5.6,10.38,19.76,19.76,0,0,1-22.8,0A12.636,12.636,0,0,1,7,26Z"/><path class="cls-3" d="M41,26c0,3.32-7.6,7-17,7S7,29.32,7,26c1,1,8,2,17,2S40,27,41,26Z"/><ellipse class="cls-4" cx="33" cy="18" rx="3" ry="4"/><ellipse class="cls-4" cx="15" cy="18" rx="3" ry="4"/><ellipse class="cls-4" cx="33" cy="18" rx="2" ry="3"/><ellipse class="cls-4" cx="15" cy="18" rx="2" ry="3"/><circle class="cls-3" cx="34" cy="17" r="1"/><circle class="cls-3" cx="16" cy="17" r="1"/><path class="cls-5" d="M24,35c7.962,0,14.613-2.641,16.468-5.466A12.089,12.089,0,0,0,41,26c0,3.32-7.6,7-17,7S7,29.32,7,26a12.089,12.089,0,0,0,.532,3.534C9.387,32.359,16.038,35,24,35Z"/><path class="cls-6" d="M39.475,28.655A3.775,3.775,0,0,0,41,26c-1,1-8,2-17,2S8,27,7,26a3.775,3.775,0,0,0,1.525,2.655C11.223,29.394,17,30,24,30S36.777,29.394,39.475,28.655Z"/><path class="cls-7" d="M24,4c12.15,0,22,8.507,22,19h.975a23,23,0,0,0-45.95,0H2C2,12.507,11.85,4,24,4Z"/><path class="cls-8" d="M46,23c0,10.493-9.85,19-22,19S2,33.493,2,23H1.025c-.014.332-.025.665-.025,1a23,23,0,0,0,46,0c0-.335-.011-.668-.025-1Z"/><ellipse class="cls-3" cx="37" cy="9" rx="0.825" ry="1.148" transform="translate(4.48 28.81) rotate(-45.02)"/><ellipse class="cls-3" cx="30.746" cy="4.5" rx="0.413" ry="0.574" transform="translate(5.829 23.067) rotate(-45.02)"/><ellipse class="cls-3" cx="34" cy="7" rx="1.65" ry="2.297" transform="translate(5.015 26.102) rotate(-45.02)"/><path class="cls-9" d="M24,0A24,24,0,1,0,48,24,24.028,24.028,0,0,0,24,0Zm0,46A22,22,0,1,1,46,24,22.025,22.025,0,0,1,24,46Z"/><path class="cls-9" d="M33,22c1.682,0,3-1.757,3-4s-1.318-4-3-4-3,1.757-3,4S31.318,22,33,22Zm0-6c.4,0,1,.8,1,2s-.6,2-1,2-1-.8-1-2S32.6,16,33,16Z"/><path class="cls-9" d="M15,22c1.682,0,3-1.757,3-4s-1.318-4-3-4-3,1.757-3,4S13.318,22,15,22Zm0-6c.4,0,1,.8,1,2s-.6,2-1,2-1-.8-1-2S14.6,16,15,16Z"/><path class="cls-9" d="M41.389,25.071a.99.99,0,0,0-1.084.211C39.592,25.862,33.909,27,24,27c-9.893,0-15.573-1.134-16.3-1.715A1,1,0,0,0,6,26a13.679,13.679,0,0,0,6.014,11.19A21.174,21.174,0,0,0,24,41a21.173,21.173,0,0,0,11.987-3.811A13.677,13.677,0,0,0,42,26,1,1,0,0,0,41.389,25.071ZM38.968,27.8C36.757,29.876,31.145,32,24,32S11.243,29.876,9.032,27.8A78.126,78.126,0,0,0,24,29,78.126,78.126,0,0,0,38.968,27.8Zm-4.154,7.773a18.757,18.757,0,0,1-21.626,0,12.635,12.635,0,0,1-4.4-5.439C12.034,32.412,17.759,34,24,34s11.965-1.588,15.214-3.869A12.649,12.649,0,0,1,34.814,35.569Z"/></svg>